<svg width="20" height="16" viewBox="0 0 20 16" fill="none" xmlns="http://www.w3.org/2000/svg">
<path d="M18.8992 5.69502C17.6439 3.6482 14.7885 0.214142 9.77698 0.214142C4.76547 0.214142 1.91008 3.6482 0.654773 5.69502C0.266711 6.32342 0.0611572 7.04761 0.0611572 7.78641C0.0611572 8.52521 0.266711 9.24941 0.654773 9.8778C1.91008 11.9246 4.76547 15.3587 9.77698 15.3587C14.7885 15.3587 17.6439 11.9246 18.8992 9.8778C19.2873 9.24941 19.4928 8.52521 19.4928 7.78641C19.4928 7.04761 19.2873 6.32342 18.8992 5.69502V5.69502ZM17.5192 9.02941C16.4412 10.7845 14.001 13.7381 9.77698 13.7381C5.55297 13.7381 3.11278 10.7845 2.03472 9.02941C1.80416 8.6559 1.68204 8.22549 1.68204 7.78641C1.68204 7.34733 1.80416 6.91692 2.03472 6.54341C3.11278 4.78829 5.55297 1.83475 9.77698 1.83475C14.001 1.83475 16.4412 4.78505 17.5192 6.54341C17.7498 6.91692 17.8719 7.34733 17.8719 7.78641C17.8719 8.22549 17.7498 8.6559 17.5192 9.02941V9.02941Z" fill="#757575"/>
<path d="M9.77693 3.73489C8.97655 3.73489 8.19415 3.97251 7.52867 4.4177C6.86318 4.86288 6.3445 5.49564 6.03821 6.23596C5.73192 6.97627 5.65178 7.7909 5.80792 8.57681C5.96407 9.36273 6.34948 10.0846 6.91543 10.6512C7.48138 11.2179 8.20245 11.6037 8.98744 11.7601C9.77244 11.9164 10.5861 11.8362 11.3256 11.5295C12.065 11.2229 12.697 10.7036 13.1417 10.0373C13.5864 9.37103 13.8237 8.58771 13.8237 7.7864C13.8224 6.71227 13.3956 5.6825 12.637 4.92297C11.8784 4.16345 10.8498 3.73618 9.77693 3.73489ZM9.77693 10.2173C9.2967 10.2173 8.82726 10.0747 8.42797 9.80762C8.02868 9.54051 7.71747 9.16086 7.53369 8.71667C7.34992 8.27248 7.30184 7.7837 7.39552 7.31216C7.48921 6.84061 7.72046 6.40746 8.06003 6.06749C8.3996 5.72752 8.83224 5.496 9.30324 5.40221C9.77423 5.30841 10.2624 5.35655 10.7061 5.54054C11.1498 5.72453 11.529 6.0361 11.7958 6.43586C12.0626 6.83562 12.205 7.30561 12.205 7.7864C12.205 8.43112 11.9492 9.04943 11.4938 9.50531C11.0385 9.96119 10.4209 10.2173 9.77693 10.2173Z" fill="#757575"/>
</svg>
