<svg width="21" height="20" viewBox="0 0 21 20" fill="none" xmlns="http://www.w3.org/2000/svg">
<path d="M10.777 19.1556L2.53618 10.9051C1.44325 9.81105 0.829193 8.32711 0.829102 6.77975C0.829011 5.23239 1.44289 3.74837 2.53569 2.65416C3.62849 1.55995 5.1107 0.945175 6.65625 0.945084C8.20179 0.944992 9.68407 1.55959 10.777 2.65367C11.8705 1.56083 13.3524 0.947032 14.8974 0.947032C16.4425 0.947032 17.9244 1.56083 19.0178 2.65367C20.1089 3.74866 20.7217 5.23222 20.7217 6.77892C20.7217 8.32562 20.1089 9.80917 19.0178 10.9042L10.777 19.1556ZM6.6561 2.88996C5.88767 2.88993 5.13648 3.11806 4.49756 3.5455C3.85863 3.97293 3.36068 4.58047 3.06667 5.29128C2.77266 6.00208 2.6958 6.78421 2.84583 7.53874C2.99585 8.29328 3.36601 8.98632 3.90949 9.53022L10.777 16.4058L17.6445 9.53022C18.039 9.1441 18.3468 8.6783 18.5474 8.16383C18.7481 7.64935 18.837 7.09798 18.8082 6.54643C18.7795 5.99487 18.6337 5.45577 18.3806 4.965C18.1276 4.47423 17.773 4.04305 17.3406 3.70014C16.9081 3.35724 16.4077 3.11048 15.8726 2.97628C15.3374 2.84208 14.7799 2.82352 14.237 2.92184C13.6942 3.02015 13.1785 3.23309 12.7242 3.54649C12.27 3.85988 11.8876 4.26653 11.6025 4.73939L10.777 6.07347L9.95146 4.73939C9.61068 4.17059 9.12729 3.70086 8.54925 3.37679C7.9712 3.05272 7.31858 2.88556 6.6561 2.8919V2.88996Z" fill="#757575"/>
</svg>
