<svg width="18" height="18" viewBox="0 0 18 18" fill="none" xmlns="http://www.w3.org/2000/svg">
<path d="M2.86463 3.43716C3.62512 2.61682 4.50913 2.0002 5.45089 1.57612C8.58068 0.166849 12.3897 0.894101 14.7576 3.59885L16.3933 2.1976C16.4842 2.11975 16.63 2.19177 16.6387 2.31376L17.0455 7.80172C17.0505 7.8931 16.9662 7.96538 16.88 7.94351L11.5301 6.69593C11.4082 6.66522 11.3625 6.51304 11.4534 6.43519L13.0858 5.03672C11.5209 3.26495 9.10347 2.67941 6.97547 3.35992C6.17099 3.61574 5.41036 4.04785 4.75614 4.67023C3.85664 5.52525 3.29282 6.62174 3.06947 7.78113C2.95173 8.39979 2.34542 8.79539 1.73261 8.65062C1.14944 8.51423 0.785315 7.93691 0.900704 7.3484C1.17247 5.91678 1.82963 4.55459 2.86463 3.43716ZM14.3205 10.4739C14.1032 11.6337 13.5361 12.733 12.6338 13.5848C11.9764 14.2099 11.213 14.6388 10.4145 14.8951C8.28651 15.5756 5.86585 14.9928 4.3042 13.2183L5.93662 11.8198C6.02749 11.742 5.97897 11.5866 5.85993 11.5591L0.5072 10.3083C0.417802 10.2892 0.333422 10.3615 0.341687 10.4501L0.7457 15.9348C0.757177 16.06 0.900276 16.1288 0.991146 16.0509L2.62681 14.6497C4.99148 17.3572 8.80328 18.0877 11.9335 16.6724C12.8753 16.2483 13.7565 15.6285 14.5198 14.8114C15.5576 13.6972 16.2147 12.335 16.4865 10.9034C16.5991 10.3116 16.2378 9.73754 15.6546 9.60115C15.0446 9.45963 14.4383 9.85523 14.3205 10.4739Z" fill="#757575" stroke="white" stroke-width="0.3"/>
</svg>
