<svg width="11" height="11" fill="none" xmlns="http://www.w3.org/2000/svg"><path d="M3.626 3.858l.307-.043.143-.276 1.285-2.477s0 0 0 0l.002-.003h.001a.06.06 0 01.028-.007c.015 0 .026.004.03.007l.002.001h0l.002.003h0L6.711 3.54l.142.276.308.043 2.875.398h0l.008.001-2.065 1.914-.241.223.058.324.49 2.707a.058.058 0 01-.025.008.049.049 0 01-.027-.005h0L5.662 8.142l-.269-.134-.268.134-2.572 1.286h-.002a.045.045 0 01-.025.006.056.056 0 01-.025-.008l.49-2.708.058-.324-.24-.223L.742 4.257H.75l2.875-.4zM8.288 9.44l.59-.106c.089.492-.456.859-.913.63l.323-.524z" fill="#fff" stroke="#7AC751" stroke-width="1.2"/></svg>